ffmpeg version 2.1.1 Copyright (c) 2000-2013 the FFmpeg developers
  built on Dec 20 2014 10:34:55 with gcc 4.7 (Debian 4.7.2-5)
  configuration: --enable-gpl --enable-nonfree --enable-postproc --enable-pthreads --enable-x11grab --enable-swscale --enable-version3 --enable-shared --disable-yasm --enable-filter=movie --enable-frei0r --enable-libdc1394 --enable-libfaac --enable-libmp3lame --enable-libx264 --enable-libxvid --enable-libfreetype --enable-libvorbis --enable-libgsm --enable-libopencore-amrnb --enable-libopencore-amrwb --enable-libopenjpeg --enable-librtmp --enable-libschroedinger --enable-libspeex --enable-libtheora --enable-libvpx --enable-libvo-amrwbenc --enable-libvo-aacenc --enable-libaacplus --enable-libxavs --enable-bzlib --enable-openssl --enable-gnutls --enable-openal --enable-libv4l2 --enable-libpulse --enable-libmodplug --enable-libass --enable-libcdio --enable-vdpau --enable-libbluray
  libavutil      52. 48.101 / 52. 48.101
  libavcodec     55. 39.101 / 55. 39.101
  libavformat    55. 19.104 / 55. 19.104
  libavdevice    55.  5.100 / 55.  5.100
  libavfilter     3. 90.100 /  3. 90.100
  libswscale      2.  5.101 /  2.  5.101
  libswresample   0. 17.104 /  0. 17.104
  libpostproc    52.  3.100 / 52.  3.100
Input #0, mov,mp4,m4a,3gp,3g2,mj2, from '/var/www/business-supermarket.com/web/www/temp/0215544001421841473.mp4':
  Metadata:
    major_brand     : isom
    minor_version   : 512
    compatible_brands: isomiso2avc1mp41
    encoder         : Lavf55.19.104
  Duration: 00:06:36.86, start: 0.023220, bitrate: 530 kb/s
    Stream #0:0(und): Video: h264 (Constrained Baseline) (avc1 / 0x31637661), yuv420p, 320x240, 462 kb/s, 25 fps, 25 tbr, 12800 tbn, 50 tbc (default)
    Metadata:
      handler_name    : VideoHandler
    Stream #0:1(und): Audio: aac (mp4a / 0x6134706D), 44100 Hz, stereo, fltp, 63 kb/s (default)
    Metadata:
      handler_name    : SoundHandler
Please use -b:a or -b:v, -b is ambiguous
Output #0, flv, to '/var/www/business-supermarket.com/web/www/upload/users/jaguar_763/videos/0215544001421841473.flv':
  Metadata:
    major_brand     : isom
    minor_version   : 512
    compatible_brands: isomiso2avc1mp41
    encoder         : Lavf55.19.104
    Stream #0:0(und): Video: flv1 (flv) ([2][0][0][0] / 0x0002), yuv420p, 512x384, q=2-31, 1000 kb/s, 1k tbn, 30 tbc (default)
    Metadata:
      handler_name    : VideoHandler
    Stream #0:1(und): Audio: mp3 (libmp3lame) ([2][0][0][0] / 0x0002), 44100 Hz, stereo, fltp, 128 kb/s (default)
    Metadata:
      handler_name    : SoundHandler
Stream mapping:
  Stream #0:0 -> #0:0 (h264 -> flv)
  Stream #0:1 -> #0:1 (aac -> libmp3lame)
Press [q] to stop, [?] for help
frame=  121 fps=0.0 q=2.0 size=     533kB time=00:00:04.90 bitrate= 889.4kbits/s    frame=  232 fps=231 q=2.0 size=    1043kB time=00:00:09.32 bitrate= 916.0kbits/s    frame=  313 fps=208 q=2.4 size=    1767kB time=00:00:12.58 bitrate=1150.2kbits/s    frame=  401 fps=200 q=2.2 size=    2406kB time=00:00:16.08 bitrate=1224.8kbits/s    frame=  489 fps=195 q=2.5 size=    2909kB time=00:00:19.61 bitrate=1214.8kbits/s    frame=  575 fps=191 q=4.4 size=    3387kB time=00:00:23.03 bitrate=1204.5kbits/s    frame=  654 fps=186 q=4.6 size=    3872kB time=00:00:26.19 bitrate=1210.8kbits/s    frame=  730 fps=182 q=2.9 size=    4243kB time=00:00:29.25 bitrate=1188.0kbits/s    frame=  781 fps=164 q=8.0 size=    4512kB time=00:00:31.29 bitrate=1181.1kbits/s    frame=  813 fps=153 q=13.7 size=    4763kB time=00:00:32.59 bitrate=1197.0kbits/s    frame=  898 fps=154 q=2.0 size=    5197kB time=00:00:35.99 bitrate=1182.7kbits/s    frame=  994 fps=157 q=2.0 size=    5394kB time=00:00:39.83 bitrate=1109.2kbits/s    frame= 1069 fps=157 q=2.7 size=    5985kB time=00:00:42.81 bitrate=1145.2kbits/s    frame= 1143 fps=156 q=3.7 size=    6467kB time=00:00:45.79 bitrate=1156.9kbits/s    frame= 1224 fps=156 q=3.1 size=    6919kB time=00:00:49.03 bitrate=1156.0kbits/s    frame= 1304 fps=157 q=4.3 size=    7384kB time=00:00:52.21 bitrate=1158.4kbits/s    frame= 1378 fps=156 q=4.4 size=    7785kB time=00:00:55.17 bitrate=1156.0kbits/s    frame= 1457 fps=156 q=4.5 size=    8245kB time=00:00:58.32 bitrate=1158.0kbits/s    frame= 1547 fps=157 q=3.7 size=    8712kB time=00:01:01.96 bitrate=1151.8kbits/s    frame= 1637 fps=158 q=3.3 size=    9178kB time=00:01:05.53 bitrate=1147.2kbits/s    frame= 1724 fps=159 q=3.6 size=    9687kB time=00:01:09.04 bitrate=1149.4kbits/s    frame= 1811 fps=160 q=2.4 size=   10162kB time=00:01:12.48 bitrate=1148.4kbits/s    frame= 1900 fps=160 q=3.4 size=   10662kB time=00:01:16.06 bitrate=1148.3kbits/s    frame= 1980 fps=160 q=3.4 size=   11097kB time=00:01:19.28 bitrate=1146.6kbits/s    frame= 2053 fps=160 q=4.6 size=   11542kB time=00:01:22.20 bitrate=1150.2kbits/s    frame= 2146 fps=161 q=3.7 size=   12031kB time=00:01:25.89 bitrate=1147.5kbits/s    frame= 2243 fps=162 q=2.2 size=   12431kB time=00:01:29.78 bitrate=1134.2kbits/s    frame= 2332 fps=163 q=2.4 size=   13015kB time=00:01:33.33 bitrate=1142.3kbits/s    frame= 2399 fps=152 q=2.0 size=   13286kB time=00:01:36.02 bitrate=1133.4kbits/s    frame= 2474 fps=151 q=3.0 size=   13742kB time=00:01:39.02 bitrate=1136.8kbits/s    frame= 2576 fps=153 q=2.0 size=   14105kB time=00:01:43.07 bitrate=1121.0kbits/s    frame= 2680 fps=154 q=2.0 size=   14474kB time=00:01:47.25 bitrate=1105.5kbits/s    frame= 2786 fps=156 q=2.0 size=   14817kB time=00:01:51.51 bitrate=1088.5kbits/s    frame= 2874 fps=156 q=2.0 size=   15316kB time=00:01:55.04 bitrate=1090.6kbits/s    frame= 2961 fps=157 q=2.0 size=   15935kB time=00:01:58.51 bitrate=1101.4kbits/s    frame= 3055 fps=158 q=2.0 size=   16473kB time=00:02:02.25 bitrate=1103.9kbits/s    frame= 3146 fps=158 q=2.0 size=   17001kB time=00:02:05.90 bitrate=1106.1kbits/s    frame= 3170 fps=155 q=2.0 size=   17186kB time=00:02:06.85 bitrate=1109.9kbits/s    frame= 3249 fps=155 q=3.2 size=   17954kB time=00:02:10.03 bitrate=1131.1kbits/s    frame= 3335 fps=155 q=2.5 size=   18502kB time=00:02:13.45 bitrate=1135.7kbits/s    frame= 3423 fps=156 q=3.7 size=   19131kB time=00:02:16.98 bitrate=1144.1kbits/s    frame= 3513 fps=156 q=2.6 size=   19576kB time=00:02:20.56 bitrate=1140.9kbits/s    frame= 3542 fps=149 q=3.6 size=   19791kB time=00:02:21.73 bitrate=1143.8kbits/s    frame= 3631 fps=150 q=2.0 size=   20243kB time=00:02:25.31 bitrate=1141.2kbits/s    frame= 3721 fps=150 q=4.2 size=   20865kB time=00:02:28.92 bitrate=1147.7kbits/s    frame= 3810 fps=151 q=6.1 size=   21357kB time=00:02:32.47 bitrate=1147.4kbits/s    frame= 3898 fps=151 q=2.4 size=   21797kB time=00:02:36.00 bitrate=1144.6kbits/s    frame= 3987 fps=152 q=5.4 size=   22321kB time=00:02:39.55 bitrate=1146.0kbits/s    frame= 4073 fps=152 q=4.0 size=   22799kB time=00:02:42.95 bitrate=1146.2kbits/s    frame= 4166 fps=153 q=3.6 size=   23262kB time=00:02:46.68 bitrate=1143.3kbits/s    frame= 4179 fps=150 q=5.2 size=   23338kB time=00:02:47.23 bitrate=1143.2kbits/s    frame= 4243 fps=150 q=4.5 size=   23687kB time=00:02:49.76 bitrate=1143.0kbits/s    frame= 4328 fps=150 q=2.6 size=   24138kB time=00:02:53.16 bitrate=1141.9kbits/s    frame= 4418 fps=151 q=2.5 size=   24638kB time=00:02:56.77 bitrate=1141.8kbits/s    frame= 4507 fps=151 q=4.5 size=   25184kB time=00:03:00.34 bitrate=1144.0kbits/s    frame= 4595 fps=152 q=2.8 size=   25631kB time=00:03:03.84 bitrate=1142.1kbits/s    frame= 4685 fps=152 q=2.0 size=   26108kB time=00:03:07.45 bitrate=1141.0kbits/s    frame= 4789 fps=153 q=3.7 size=   26566kB time=00:03:11.60 bitrate=1135.8kbits/s    frame= 4921 fps=155 q=2.0 size=   26895kB time=00:03:16.93 bitrate=1118.8kbits/s    frame= 5052 fps=156 q=2.0 size=   27190kB time=00:03:22.16 bitrate=1101.8kbits/s    frame= 5162 fps=157 q=2.0 size=   27674kB time=00:03:26.52 bitrate=1097.7kbits/s    frame= 5261 fps=158 q=2.0 size=   28315kB time=00:03:30.51 bitrate=1101.8kbits/s    frame= 5375 fps=159 q=2.0 size=   28926kB time=00:03:35.06 bitrate=1101.8kbits/s    frame= 5496 fps=160 q=2.0 size=   29303kB time=00:03:39.89 bitrate=1091.6kbits/s    frame= 5623 fps=162 q=2.0 size=   29712kB time=00:03:44.99 bitrate=1081.8kbits/s    frame= 5756 fps=163 q=2.0 size=   30128kB time=00:03:50.29 bitrate=1071.7kbits/s    frame= 5885 fps=164 q=2.0 size=   30540kB time=00:03:55.44 bitrate=1062.6kbits/s    frame= 6017 fps=166 q=2.0 size=   30955kB time=00:04:00.74 bitrate=1053.3kbits/s    frame= 6148 fps=167 q=2.0 size=   31369kB time=00:04:05.99 bitrate=1044.6kbits/s    frame= 6282 fps=168 q=2.0 size=   31785kB time=00:04:11.32 bitrate=1036.0kbits/s    frame= 6396 fps=168 q=2.0 size=   32129kB time=00:04:15.92 bitrate=1028.4kbits/s    frame= 6527 fps=169 q=2.0 size=   32541kB time=00:04:21.11 bitrate=1020.9kbits/s    frame= 6665 fps=171 q=2.0 size=   32987kB time=00:04:26.65 bitrate=1013.4kbits/s    frame= 6799 fps=172 q=2.0 size=   33404kB time=00:04:32.01 bitrate=1006.0kbits/s    frame= 6933 fps=173 q=2.0 size=   33820kB time=00:04:37.39 bitrate= 998.8kbits/s    frame= 7058 fps=174 q=1.6 size=   34230kB time=00:04:42.38 bitrate= 993.0kbits/s    frame= 7180 fps=175 q=2.0 size=   34609kB time=00:04:47.26 bitrate= 986.9kbits/s    frame= 7308 fps=176 q=2.0 size=   34992kB time=00:04:52.38 bitrate= 980.4kbits/s    frame= 7433 fps=177 q=2.0 size=   35402kB time=00:04:57.37 bitrate= 975.2kbits/s    frame= 7554 fps=178 q=2.0 size=   35780kB time=00:05:02.23 bitrate= 969.8kbits/s    frame= 7670 fps=178 q=1.6 size=   36154kB time=00:05:06.85 bitrate= 965.2kbits/s    frame= 7796 fps=179 q=2.0 size=   36536kB time=00:05:11.90 bitrate= 959.6kbits/s    frame= 7926 fps=180 q=2.0 size=   36949kB time=00:05:17.09 bitrate= 954.6kbits/s    frame= 8054 fps=181 q=1.6 size=   37360kB time=00:05:22.21 bitrate= 949.8kbits/s    frame= 8180 fps=182 q=2.0 size=   37742kB time=00:05:27.28 bitrate= 944.7kbits/s    frame= 8308 fps=182 q=2.0 size=   38154kB time=00:05:32.38 bitrate= 940.4kbits/s    frame= 8438 fps=183 q=1.6 size=   38567kB time=00:05:37.57 bitrate= 935.9kbits/s    frame= 8578 fps=184 q=2.0 size=   38989kB time=00:05:43.19 bitrate= 930.7kbits/s    frame= 8711 fps=185 q=2.0 size=   39405kB time=00:05:48.49 bitrate= 926.3kbits/s    frame= 8833 fps=186 q=2.0 size=   39784kB time=00:05:53.38 bitrate= 922.3kbits/s    frame= 8973 fps=187 q=2.0 size=   40234kB time=00:05:58.97 bitrate= 918.2kbits/s    frame= 9105 fps=188 q=2.0 size=   40649kB time=00:06:04.24 bitrate= 914.2kbits/s    frame= 9255 fps=189 q=2.0 size=   41135kB time=00:06:10.25 bitrate= 910.1kbits/s    frame= 9349 fps=186 q=2.0 size=   41407kB time=00:06:14.01 bitrate= 906.9kbits/s    frame= 9498 fps=187 q=2.0 size=   41892kB time=00:06:19.97 bitrate= 903.2kbits/s    frame= 9648 fps=188 q=2.0 size=   42350kB time=00:06:25.98 bitrate= 898.8kbits/s    frame= 9797 fps=189 q=2.0 size=   42835kB time=00:06:31.96 bitrate= 895.2kbits/s    frame= 9921 fps=190 q=2.0 Lsize=   43438kB time=00:06:36.87 bitrate= 896.6kbits/s    
video:36844kB audio:6201kB subtitle:0 global headers:0kB muxing overhead 0.912529%
